<svg xmlns="http://www.w3.org/2000/svg" width="800" height="800" viewBox="0 0 800 800" fill="none"><g clip-path="url(#clip0_421_954)"><path d="M449.497 632.98L426.901 724.799H262.271L284.885 632.98H449.497Z" fill="#F5F5F5"></path><path d="M546.415 75.2162H590.112C567.281 75.2162 548.764 93.7336 548.764 116.565V146.315V329.226V390.184V421.664C548.764 444.496 567.281 463.013 590.112 463.013H546.415C523.584 463.013 505.066 444.496 505.066 421.664V192.927V116.584C505.066 93.7336 523.582 75.2162 546.415 75.2162Z" fill="#666666"></path><path d="M786.351 116.565V146.315H548.764V116.565C548.764 93.7336 567.281 75.2162 590.112 75.2162H701.304H745.001C767.834 75.2162 786.351 93.7336 786.351 116.565Z" fill="#808080"></path><path d="M760.113 390.184H786.35V421.664C786.35 444.496 767.832 463.013 745.001 463.013H737.59H701.302H590.11C567.279 463.013 548.762 444.496 548.762 421.664V390.184H700.902H760.113Z" fill="#808080"></path><path d="M687.339 310.091L760.113 390.184H700.903L657.734 342.682L687.339 310.091Z" fill="#455A64"></path><path d="M657.735 342.682L700.904 390.184H548.764V329.226H552.861L599.18 278.282L657.735 342.682Z" fill="#F09B37"></path><path d="M706.366 205.908C725.648 205.908 741.289 221.549 741.289 240.83C741.289 260.111 725.648 275.752 706.366 275.752C687.085 275.752 671.444 260.111 671.444 240.83C671.444 221.549 687.085 205.908 706.366 205.908Z" fill="#F95428"></path><path d="M786.352 146.315V390.184H760.116L687.342 310.09L657.737 342.681L599.182 278.282L552.863 329.226H548.766V146.315H786.352ZM741.287 240.83C741.287 221.549 725.647 205.908 706.365 205.908C687.084 205.908 671.443 221.549 671.443 240.83C671.443 260.111 687.084 275.752 706.365 275.752C725.647 275.752 741.287 260.111 741.287 240.83Z" fill="#F05742"></path><path d="M737.592 463.015V548.006H475.679L349.266 408.866L297.993 465.29L196.597 353.787L72.751 481.076V231.489C72.751 210.186 90.0292 192.927 111.314 192.927H124.842H409.477H505.065V421.666C505.065 444.497 523.583 463.015 546.414 463.015H590.111H701.303H737.592ZM442.651 288.952C442.651 255.56 415.594 228.486 382.202 228.486C348.809 228.486 321.736 255.56 321.736 288.952C321.736 322.345 348.809 349.401 382.202 349.401C415.594 349.401 442.651 322.345 442.651 288.952Z" fill="#F05742"></path><path d="M382.203 228.486C415.596 228.486 442.652 255.56 442.652 288.952C442.652 322.345 415.596 349.401 382.203 349.401C348.811 349.401 321.737 322.345 321.737 288.952C321.737 255.56 348.811 228.486 382.203 228.486Z" fill="#F95428"></path><path d="M349.265 408.866L475.678 548.006H373.171L297.994 465.29L349.265 408.866Z" fill="#455A64"></path><path d="M297.995 465.29L373.172 548.006H72.751V481.076L196.597 353.789L297.995 465.29Z" fill="#F7B239"></path><path d="M58.3679 192.927H111.314C90.0291 192.927 72.7509 210.188 72.7509 231.489V481.076V548.006V594.434C72.7509 615.719 90.0291 632.98 111.314 632.98H58.3679C33.6787 632.98 13.6504 612.97 13.6504 588.281V237.625C13.6504 212.936 33.6787 192.927 58.3679 192.927Z" fill="#CCCCCC"></path><path d="M737.592 548.006V594.434C737.592 615.719 720.331 632.98 699.029 632.98H633.793H449.498H284.885H124.842H111.314C90.0292 632.98 72.751 615.719 72.751 594.434V548.006H373.172H475.679H737.592Z" fill="#F2F2F2"></path><path d="M382.2 214.836C341.336 214.836 308.087 248.083 308.087 288.948C308.087 329.812 341.334 363.061 382.2 363.061C423.066 363.061 456.311 329.814 456.311 288.948C456.311 248.082 423.064 214.836 382.2 214.836ZM382.2 335.748C356.395 335.748 335.398 314.752 335.398 288.946C335.398 263.14 356.394 242.146 382.2 242.146C408.005 242.146 429 263.141 429 288.946C429 314.751 408.003 335.748 382.2 335.748Z" fill="#333333"></path><path d="M706.368 192.256C679.585 192.256 657.794 214.047 657.794 240.83C657.794 267.613 679.585 289.404 706.368 289.404C733.151 289.404 754.942 267.613 754.942 240.83C754.94 214.047 733.149 192.256 706.368 192.256ZM706.368 262.093C694.644 262.093 685.105 252.554 685.105 240.83C685.105 229.106 694.643 219.567 706.368 219.567C718.093 219.567 727.63 229.106 727.63 240.83C727.629 252.555 718.091 262.093 706.368 262.093Z" fill="#333333"></path><path d="M744.996 61.5614L546.417 61.5536C516.087 61.5536 491.413 86.2366 491.413 116.576V179.267H409.531C409.513 179.267 409.497 179.265 409.478 179.265H111.316C111.282 179.265 111.248 179.267 111.21 179.267H58.3598C26.1799 179.267 0 205.448 0 237.627V588.276C0 620.456 26.1799 646.636 58.3598 646.636H267.451L249.014 721.524C248.999 721.588 248.993 721.654 248.979 721.718C248.904 722.046 248.844 722.379 248.793 722.717C248.768 722.879 248.738 723.04 248.718 723.204C248.68 723.527 248.663 723.857 248.649 724.192C248.641 724.359 248.625 724.529 248.624 724.698C248.624 724.731 248.619 724.762 248.619 724.793C248.619 725.201 248.644 725.604 248.678 726.003C248.685 726.054 248.68 726.106 248.686 726.157C248.735 726.657 248.816 727.151 248.918 727.635C248.93 727.698 248.95 727.757 248.964 727.821C249.06 728.238 249.171 728.649 249.302 729.051C249.339 729.165 249.386 729.279 249.427 729.393C249.55 729.737 249.683 730.076 249.833 730.407C249.896 730.543 249.963 730.679 250.03 730.814C250.18 731.115 250.338 731.412 250.507 731.699C250.591 731.842 250.674 731.982 250.763 732.121C250.941 732.401 251.133 732.671 251.332 732.937C251.399 733.028 251.455 733.126 251.527 733.217C251.558 733.254 251.594 733.29 251.625 733.328C251.866 733.628 252.121 733.912 252.385 734.19C252.455 734.265 252.519 734.345 252.593 734.418C252.932 734.759 253.286 735.079 253.66 735.381C253.758 735.46 253.861 735.531 253.961 735.609C254.246 735.828 254.535 736.039 254.835 736.235C254.964 736.32 255.099 736.396 255.232 736.476C255.518 736.649 255.808 736.815 256.11 736.965C256.249 737.035 256.388 737.101 256.529 737.167C256.836 737.31 257.147 737.44 257.468 737.56C257.608 737.614 257.747 737.667 257.888 737.715C258.219 737.828 258.557 737.923 258.897 738.01C259.036 738.046 259.171 738.087 259.308 738.117C259.669 738.196 260.035 738.257 260.407 738.306C260.53 738.321 260.652 738.348 260.779 738.362C261.271 738.415 261.769 738.448 262.274 738.448H426.899H534.979C542.523 738.448 548.634 732.334 548.634 724.793C548.634 717.252 542.521 711.138 534.979 711.138H444.321L460.197 646.641L699.026 646.633C727.818 646.633 751.245 623.217 751.245 594.433V476.307C778.644 473.191 800.002 449.88 800.002 421.663V116.571C800.006 86.2366 775.328 61.5614 744.996 61.5614ZM772.695 116.571V132.67H562.414V116.571C562.414 101.299 574.839 88.8741 590.112 88.8741H744.996C760.27 88.871 772.695 101.296 772.695 116.571ZM562.414 337.925L562.958 338.418L599.175 298.573L670.047 376.531H562.415V337.925H562.414ZM706.954 376.531L676.18 342.679L687.34 330.399L729.26 376.53L706.954 376.531ZM766.164 376.531L697.446 300.912C694.857 298.065 691.187 296.44 687.34 296.44C683.493 296.44 679.822 298.063 677.233 300.912L657.724 322.378L609.277 269.085C606.689 266.24 603.019 264.615 599.172 264.615C595.327 264.615 591.656 266.238 589.069 269.086L562.414 298.412V159.978H772.693V376.53L766.164 376.531ZM518.723 116.577C518.723 102.654 529.049 91.1273 542.434 89.1866C537.781 97.2586 535.101 106.604 535.101 116.573V421.66C535.101 431.621 537.776 440.964 542.426 449.033C529.045 447.088 518.721 435.572 518.721 421.66V116.577H518.723ZM546.417 476.665L723.938 476.669V534.342H481.727L359.364 399.688C356.775 396.841 353.106 395.216 349.257 395.216C345.41 395.216 341.74 396.839 339.153 399.688L297.99 444.98L206.703 344.596C204.169 341.81 200.597 340.193 196.831 340.131C193.028 340.118 189.439 341.562 186.814 344.262L86.41 447.455V231.483C86.41 217.767 97.5554 206.608 111.265 206.58H491.413V421.66C491.412 451.988 516.087 476.665 546.417 476.665ZM86.4085 486.616L196.262 373.709L342.306 534.342H86.4085V486.616ZM379.212 534.342L316.445 465.28L349.256 429.175L444.824 534.34H379.212V534.342ZM27.3112 588.276V237.627C27.3112 220.506 41.2394 206.578 58.3598 206.578H65.4302C61.3942 213.984 59.0973 222.472 59.0973 231.482V594.426C59.0973 603.436 61.3927 611.919 65.4302 619.324H58.3598C41.2394 619.325 27.3112 605.397 27.3112 588.276ZM416.197 711.134H279.699L295.576 646.636H432.074L416.197 711.134ZM699.03 619.319H111.316C97.582 619.319 86.4085 608.155 86.4085 594.43V561.653H723.938V594.43C723.938 608.152 712.763 619.319 699.03 619.319ZM744.996 449.357L590.006 449.35C574.781 449.293 562.412 436.894 562.412 421.656V403.841H772.693V421.656C772.695 436.932 760.27 449.357 744.996 449.357Z" fill="#333333"></path></g><defs><clipPath id="clip0_421_954"><rect width="800" height="800" fill="white"></rect></clipPath></defs></svg>